<svg width="36" height="27" viewBox="0 0 36 27" fill="none" xmlns="http://www.w3.org/2000/svg">
<path d="M35.9994 13.4997C35.9994 19.4426 31.1994 24.2997 25.1994 24.2997C19.2566 24.2997 14.3994 19.4426 14.3994 13.4997C14.3994 7.55685 19.1994 2.69971 25.1423 2.69971C31.1994 2.69971 35.9994 7.55685 35.9994 13.4997Z" fill="#FFB600"/>
<path d="M25.1994 2.69971C31.1423 2.69971 35.9994 7.55685 35.9994 13.4997C35.9994 19.4426 31.1994 24.2997 25.1994 24.2997C19.2566 24.2997 14.3994 19.4426 14.3994 13.4997" fill="#F7981D"/>
<path d="M25.1997 2.69971C31.1426 2.69971 35.9997 7.55685 35.9997 13.4997C35.9997 19.4426 31.1997 24.2997 25.1997 24.2997" fill="#FF8500"/>
<path d="M10.6857 2.69971C4.8 2.75685 0 7.55685 0 13.4997C0 19.4426 4.8 24.2997 10.8 24.2997C13.6 24.2997 16.1143 23.214 18.0571 21.4997C18.4571 21.1569 18.8 20.7569 19.1429 20.3569H16.9143C16.6286 20.014 16.3429 19.614 16.1143 19.2711H19.9429C20.1714 18.9283 20.4 18.5283 20.5714 18.1283H15.4857C15.3143 17.7854 15.1429 17.3854 15.0286 16.9854H20.9714C21.3143 15.8997 21.5429 14.7569 21.5429 13.5569C21.5429 12.7569 21.4286 12.014 21.3143 11.2711H14.6857C14.7429 10.8711 14.8571 10.5283 14.9714 10.1283H20.9143C20.8 9.72828 20.6286 9.32828 20.4571 8.98542H15.4286C15.6 8.58542 15.8286 8.24257 16.0571 7.84257H19.8857C19.6571 7.44256 19.3714 7.04256 19.0286 6.69971H16.9143C17.2571 6.29971 17.6 5.95685 18 5.61399C16.1143 3.84256 13.5429 2.81399 10.7429 2.81399C10.7429 2.69971 10.7429 2.69971 10.6857 2.69971Z" fill="#FF5050"/>
<path d="M0 13.4997C0 19.4425 4.8 24.2997 10.8 24.2997C13.6 24.2997 16.1143 23.214 18.0571 21.4997C18.4571 21.1568 18.8 20.7568 19.1429 20.3568H16.9143C16.6286 20.014 16.3429 19.614 16.1143 19.2711H19.9429C20.1714 18.9283 20.4 18.5283 20.5714 18.1283H15.4857C15.3143 17.7854 15.1429 17.3854 15.0286 16.9854H20.9714C21.3143 15.8997 21.5429 14.7568 21.5429 13.5568C21.5429 12.7568 21.4286 12.014 21.3143 11.2711H14.6857C14.7429 10.8711 14.8571 10.5283 14.9714 10.1283H20.9143C20.8 9.72825 20.6286 9.32825 20.4571 8.98539H15.4286C15.6 8.58539 15.8286 8.24254 16.0571 7.84254H19.8857C19.6571 7.44254 19.3714 7.04254 19.0286 6.69968H16.9143C17.2571 6.29968 17.6 5.95682 18 5.61397C16.1143 3.84254 13.5429 2.81396 10.7429 2.81396H10.6857" fill="#E52836"/>
<path d="M10.8003 24.2997C13.6003 24.2997 16.1146 23.214 18.0575 21.4997C18.4575 21.1568 18.8003 20.7568 19.1432 20.3568H16.9146C16.6289 20.014 16.3432 19.614 16.1146 19.2711H19.9432C20.1717 18.9283 20.4003 18.5283 20.5717 18.1283H15.486C15.3146 17.7854 15.1432 17.3854 15.0289 16.9854H20.9717C21.3146 15.8997 21.5432 14.7568 21.5432 13.5568C21.5432 12.7568 21.4289 12.014 21.3146 11.2711H14.686C14.7432 10.8711 14.8575 10.5283 14.9717 10.1283H20.9146C20.8003 9.72825 20.6289 9.32825 20.4575 8.98539H15.4289C15.6003 8.58539 15.8289 8.24254 16.0575 7.84254H19.886C19.6575 7.44254 19.3717 7.04254 19.0289 6.69968H16.9146C17.2575 6.29968 17.6003 5.95682 18.0003 5.61397C16.1146 3.84254 13.5432 2.81396 10.7432 2.81396H10.686" fill="#CB2026"/>
<path d="M14.6283 16.2429L14.7998 15.2715C14.7426 15.2715 14.6283 15.3286 14.514 15.3286C14.114 15.3286 14.0569 15.1001 14.114 14.9858L14.4569 12.9858H15.0855L15.2569 11.9001H14.6855L14.7998 11.2144H13.6569C13.6569 11.2144 12.9712 14.9858 12.9712 15.4429C12.9712 16.1286 13.3712 16.4144 13.8855 16.4144C14.2283 16.4144 14.514 16.3001 14.6283 16.2429Z" fill="#FDFDFD"/>
<path d="M15.0278 14.4146C15.0278 16.0146 16.1135 16.4146 17.0278 16.4146C17.885 16.4146 18.2278 16.2432 18.2278 16.2432L18.4564 15.1575C18.4564 15.1575 17.8278 15.4432 17.2564 15.4432C15.9993 15.4432 16.2278 14.5289 16.2278 14.5289H18.5707C18.5707 14.5289 18.7421 13.786 18.7421 13.5003C18.7421 12.7575 18.3421 11.8432 17.085 11.8432C15.885 11.7289 15.0278 12.986 15.0278 14.4146ZM17.0278 12.7575C17.6564 12.7575 17.5421 13.5003 17.5421 13.5575H16.285C16.285 13.5003 16.3993 12.7575 17.0278 12.7575Z" fill="#FDFDFD"/>
<path d="M24.2849 16.2428L24.5135 14.9857C24.5135 14.9857 23.9421 15.2714 23.5421 15.2714C22.7421 15.2714 22.3992 14.6428 22.3992 13.9571C22.3992 12.5857 23.0849 11.8428 23.8849 11.8428C24.4564 11.8428 24.9135 12.1857 24.9135 12.1857L25.085 10.9857C25.085 10.9857 24.3992 10.7 23.7707 10.7C22.4564 10.7 21.1421 11.8428 21.1421 14.0142C21.1421 15.4428 21.8278 16.4142 23.1992 16.4142C23.6564 16.4142 24.2849 16.2428 24.2849 16.2428Z" fill="#FDFDFD"/>
<path d="M8.34282 11.7285C7.54282 11.7285 6.97139 11.9571 6.97139 11.9571L6.79996 12.9285C6.79996 12.9285 7.31424 12.6999 8.0571 12.6999C8.4571 12.6999 8.79996 12.7571 8.79996 13.0999C8.79996 13.3285 8.74282 13.3857 8.74282 13.3857C8.74282 13.3857 8.39996 13.3857 8.22853 13.3857C7.2571 13.3857 6.17139 13.7857 6.17139 15.0999C6.17139 16.1285 6.8571 16.3571 7.2571 16.3571C8.0571 16.3571 8.39996 15.8428 8.4571 15.8428L8.39996 16.2999H9.42853L9.88567 13.1571C9.88567 11.7857 8.74282 11.7285 8.34282 11.7285ZM8.57139 14.2999C8.57139 14.4714 8.4571 15.3857 7.77139 15.3857C7.42853 15.3857 7.31424 15.0999 7.31424 14.9285C7.31424 14.6428 7.48567 14.2428 8.34282 14.2428C8.51424 14.2999 8.57139 14.2999 8.57139 14.2999Z" fill="#FDFDFD"/>
<path d="M10.9705 16.3569C11.2562 16.3569 12.6848 16.414 12.6848 14.8711C12.6848 13.4426 11.3134 13.7283 11.3134 13.1569C11.3134 12.8711 11.542 12.7569 11.942 12.7569C12.1134 12.7569 12.742 12.814 12.742 12.814L12.9134 11.7854C12.9134 11.7854 12.5134 11.6711 11.8277 11.6711C10.9705 11.6711 10.1134 12.014 10.1134 13.1569C10.1134 14.4711 11.542 14.3569 11.542 14.8711C11.542 15.214 11.142 15.2711 10.8562 15.2711C10.342 15.2711 9.82768 15.0997 9.82768 15.0997L9.65625 16.1283C9.71339 16.2426 9.99911 16.3569 10.9705 16.3569Z" fill="#FDFDFD"/>
<path d="M33.7713 10.8142L33.5427 12.3571C33.5427 12.3571 33.0856 11.7856 32.457 11.7856C31.4284 11.7856 30.5142 13.0428 30.5142 14.5285C30.5142 15.4428 30.9713 16.4142 31.9427 16.4142C32.6284 16.4142 33.0284 15.9571 33.0284 15.9571L32.9713 16.3571H34.1142L34.9713 10.8714L33.7713 10.8142ZM33.257 13.8428C33.257 14.4714 32.9713 15.2714 32.3427 15.2714C31.9427 15.2714 31.7142 14.9285 31.7142 14.3571C31.7142 13.4428 32.1142 12.8714 32.6284 12.8714C33.0284 12.8714 33.257 13.1571 33.257 13.8428Z" fill="#FDFDFD"/>
<path d="M2.11403 16.2999L2.79975 12.1856L2.91403 16.2999H3.71403L5.19975 12.1856L4.57118 16.2999H5.77118L6.68546 10.8142H4.79975L3.65689 14.1856L3.59975 10.8142H1.94261L1.02832 16.2999H2.11403Z" fill="#FDFDFD"/>
<path d="M19.8284 16.2999C20.1713 14.4142 20.2284 12.8713 21.0284 13.1571C21.1427 12.4142 21.3141 12.1285 21.4284 11.8428C21.4284 11.8428 21.3713 11.8428 21.1999 11.8428C20.6856 11.8428 20.2856 12.5285 20.2856 12.5285L20.3999 11.8999H19.3141L18.5713 16.3571H19.8284V16.2999Z" fill="#FDFDFD"/>
<path d="M26.9141 11.7285C26.1141 11.7285 25.5427 11.9571 25.5427 11.9571L25.3712 12.9285C25.3712 12.9285 25.8855 12.6999 26.6284 12.6999C27.0284 12.6999 27.3712 12.7571 27.3712 13.0999C27.3712 13.3285 27.3141 13.3857 27.3141 13.3857C27.3141 13.3857 26.9712 13.3857 26.7998 13.3857C25.8284 13.3857 24.7427 13.7857 24.7427 15.0999C24.7427 16.1285 25.4284 16.3571 25.8284 16.3571C26.6284 16.3571 26.9712 15.8428 27.0284 15.8428L26.9712 16.2999H27.9998L28.457 13.1571C28.5141 11.7857 27.3141 11.7285 26.9141 11.7285ZM27.1998 14.2999C27.1998 14.4714 27.0855 15.3857 26.3998 15.3857C26.057 15.3857 25.9427 15.0999 25.9427 14.9285C25.9427 14.6428 26.1141 14.2428 26.9712 14.2428C27.1427 14.2999 27.1427 14.2999 27.1998 14.2999Z" fill="#FDFDFD"/>
<path d="M29.429 16.2997C29.7719 14.414 29.829 12.8711 30.629 13.1568C30.7433 12.414 30.9147 12.1282 31.029 11.8425C31.029 11.8425 30.9719 11.8425 30.8004 11.8425C30.2862 11.8425 29.8862 12.5282 29.8862 12.5282L30.0004 11.8997H28.9147L28.1719 16.3568H29.429V16.2997Z" fill="#FDFDFD"/>
<path d="M12.8569 15.4429C12.8569 16.1286 13.2569 16.4144 13.7712 16.4144C14.1712 16.4144 14.5141 16.3001 14.6284 16.2429L14.7998 15.2715C14.7426 15.2715 14.6284 15.3286 14.5141 15.3286C14.1141 15.3286 14.0569 15.1001 14.1141 14.9858L14.4569 12.9858H15.0855L15.2569 11.9001H14.6855L14.7998 11.2144" fill="#FDFDFD"/>
<path d="M15.5991 14.4146C15.5991 16.0146 16.1134 16.4146 17.0277 16.4146C17.8848 16.4146 18.2277 16.2432 18.2277 16.2432L18.4563 15.1575C18.4563 15.1575 17.8277 15.4432 17.2563 15.4432C15.9991 15.4432 16.2277 14.5289 16.2277 14.5289H18.5705C18.5705 14.5289 18.742 13.786 18.742 13.5003C18.742 12.7575 18.342 11.8432 17.0848 11.8432C15.8848 11.7289 15.5991 12.986 15.5991 14.4146ZM17.0277 12.7575C17.6563 12.7575 17.7706 13.5003 17.7706 13.5575H16.2848C16.2848 13.5003 16.3991 12.7575 17.0277 12.7575Z" fill="#FDFDFD"/>
<path d="M24.2848 16.2428L24.5134 14.9857C24.5134 14.9857 23.942 15.2714 23.542 15.2714C22.742 15.2714 22.3991 14.6428 22.3991 13.9571C22.3991 12.5857 23.0848 11.8428 23.8848 11.8428C24.4562 11.8428 24.9134 12.1857 24.9134 12.1857L25.0848 10.9857C25.0848 10.9857 24.3991 10.7 23.7705 10.7C22.4562 10.7 21.7134 11.8428 21.7134 14.0142C21.7134 15.4428 21.8277 16.4142 23.1991 16.4142C23.6562 16.4142 24.2848 16.2428 24.2848 16.2428Z" fill="#FDFDFD"/>
<path d="M6.79996 12.9856C6.79996 12.9856 7.31424 12.7571 8.0571 12.7571C8.4571 12.7571 8.79996 12.8142 8.79996 13.1571C8.79996 13.3856 8.74282 13.4428 8.74282 13.4428C8.74282 13.4428 8.39996 13.4428 8.22853 13.4428C7.2571 13.4428 6.17139 13.8428 6.17139 15.1571C6.17139 16.1856 6.8571 16.4142 7.2571 16.4142C8.0571 16.4142 8.39996 15.8999 8.4571 15.8999L8.39996 16.3571H9.42853L9.88567 13.2142C9.88567 11.8999 8.74282 11.8428 8.28567 11.8428L6.79996 12.9856ZM9.14282 14.2999C9.14282 14.4713 8.4571 15.3856 7.77139 15.3856C7.42853 15.3856 7.31424 15.0999 7.31424 14.9285C7.31424 14.6428 7.48567 14.2428 8.34282 14.2428C8.51424 14.2999 9.14282 14.2999 9.14282 14.2999Z" fill="#FDFDFD"/>
<path d="M9.71338 16.2426C9.71338 16.2426 10.0562 16.3569 11.0277 16.3569C11.3134 16.3569 12.742 16.414 12.742 14.8711C12.742 13.4426 11.3705 13.7283 11.3705 13.1569C11.3705 12.8711 11.5991 12.7569 11.9991 12.7569C12.1705 12.7569 12.7991 12.814 12.7991 12.814L12.9705 11.7854C12.9705 11.7854 12.5705 11.6711 11.8848 11.6711C11.0277 11.6711 10.742 12.014 10.742 13.1569C10.742 14.4711 11.5991 14.3569 11.5991 14.8711C11.5991 15.214 11.1991 15.2711 10.9134 15.2711" fill="#FDFDFD"/>
<path d="M33.5423 12.3571C33.5423 12.3571 33.0852 11.7856 32.4566 11.7856C31.4281 11.7856 31.0852 13.0428 31.0852 14.5285C31.0852 15.4428 30.9709 16.4142 31.9423 16.4142C32.6281 16.4142 33.0281 15.957 33.0281 15.957L32.9709 16.357H34.1138L34.9709 10.8713L33.5423 12.3571ZM33.4852 13.8428C33.4852 14.4713 32.9709 15.2713 32.3423 15.2713C31.9423 15.2713 31.7138 14.9285 31.7138 14.3571C31.7138 13.4428 32.1138 12.8713 32.6281 12.8713C33.0281 12.8713 33.4852 13.1571 33.4852 13.8428Z" fill="#FDFDFD"/>
<path d="M2.11403 16.2999L2.79975 12.1856L2.91403 16.2999H3.71403L5.19975 12.1856L4.57118 16.2999H5.77118L6.68546 10.8142H5.25689L3.65689 14.1856L3.59975 10.8142H2.97118L1.02832 16.2999H2.11403Z" fill="#FDFDFD"/>
<path d="M18.6284 16.2999H19.8284C20.1713 14.4142 20.2284 12.8713 21.0284 13.1571C21.1427 12.4142 21.3141 12.1285 21.4284 11.8428C21.4284 11.8428 21.3713 11.8428 21.1998 11.8428C20.6856 11.8428 20.2856 12.5285 20.2856 12.5285L20.3998 11.8999" fill="#FDFDFD"/>
<path d="M25.3712 12.9856C25.3712 12.9856 25.8855 12.7571 26.6284 12.7571C27.0284 12.7571 27.3712 12.8142 27.3712 13.1571C27.3712 13.3856 27.3141 13.4428 27.3141 13.4428C27.3141 13.4428 26.9712 13.4428 26.7998 13.4428C25.8284 13.4428 24.7427 13.8428 24.7427 15.1571C24.7427 16.1856 25.4284 16.4142 25.8284 16.4142C26.6284 16.4142 26.9712 15.8999 27.0284 15.8999L26.9712 16.3571H27.9998L28.457 13.2142C28.457 11.8999 27.3141 11.8428 26.857 11.8428L25.3712 12.9856ZM27.7141 14.2999C27.7141 14.4713 27.0284 15.3856 26.3427 15.3856C25.9998 15.3856 25.8855 15.0999 25.8855 14.9285C25.8855 14.6428 26.057 14.2428 26.9141 14.2428C27.1427 14.2999 27.7141 14.2999 27.7141 14.2999Z" fill="#FDFDFD"/>
<path d="M28.229 16.2997H29.429C29.7719 14.414 29.829 12.8711 30.629 13.1568C30.7433 12.414 30.9147 12.1282 31.029 11.8425C31.029 11.8425 30.9719 11.8425 30.8004 11.8425C30.2861 11.8425 29.8861 12.5282 29.8861 12.5282L30.0004 11.8997" fill="#FDFDFD"/>
</svg>
