<svg width="24" height="18" viewBox="0 0 24 18" fill="none" xmlns="http://www.w3.org/2000/svg">
<path d="M23.9996 8.99981C23.9996 12.9617 20.7996 16.1998 16.7996 16.1998C12.8377 16.1998 9.59961 12.9617 9.59961 8.99981C9.59961 5.0379 12.7996 1.7998 16.7615 1.7998C20.7996 1.7998 23.9996 5.0379 23.9996 8.99981Z" fill="#FFB600"/>
<path d="M16.7996 1.7998C20.7615 1.7998 23.9996 5.0379 23.9996 8.99981C23.9996 12.9617 20.7996 16.1998 16.7996 16.1998C12.8377 16.1998 9.59961 12.9617 9.59961 8.99981" fill="#F7981D"/>
<path d="M16.7998 1.7998C20.7617 1.7998 23.9998 5.0379 23.9998 8.99981C23.9998 12.9617 20.7998 16.1998 16.7998 16.1998" fill="#FF8500"/>
<path d="M7.12381 1.7998C3.2 1.8379 0 5.0379 0 8.99981C0 12.9617 3.2 16.1998 7.2 16.1998C9.06667 16.1998 10.7429 15.476 12.0381 14.3331C12.3048 14.1046 12.5333 13.8379 12.7619 13.5712H11.2762C11.0857 13.3427 10.8952 13.076 10.7429 12.8474H13.2952C13.4476 12.6189 13.6 12.3522 13.7143 12.0855H10.3238C10.2095 11.8569 10.0952 11.5903 10.019 11.3236H13.981C14.2095 10.5998 14.3619 9.8379 14.3619 9.0379C14.3619 8.50457 14.2857 8.00933 14.2095 7.51409H9.79048C9.82857 7.24742 9.90476 7.01885 9.98095 6.75219H13.9429C13.8667 6.48552 13.7524 6.21885 13.6381 5.99028H10.2857C10.4 5.72361 10.5524 5.49504 10.7048 5.22838H13.2571C13.1048 4.96171 12.9143 4.69504 12.6857 4.46647H11.2762C11.5048 4.19981 11.7333 3.97123 12 3.74266C10.7429 2.56171 9.02857 1.876 7.1619 1.876C7.1619 1.7998 7.1619 1.7998 7.12381 1.7998Z" fill="#FF5050"/>
<path d="M0 8.99979C0 12.9617 3.2 16.1998 7.2 16.1998C9.06667 16.1998 10.7429 15.476 12.0381 14.3331C12.3048 14.1046 12.5333 13.8379 12.7619 13.5712H11.2762C11.0857 13.3426 10.8952 13.076 10.7429 12.8474H13.2952C13.4476 12.6188 13.6 12.3522 13.7143 12.0855H10.3238C10.2095 11.8569 10.0952 11.5903 10.019 11.3236H13.981C14.2095 10.5998 14.3619 9.83788 14.3619 9.03788C14.3619 8.50455 14.2857 8.00931 14.2095 7.51407H9.79048C9.82857 7.24741 9.90476 7.01883 9.98095 6.75217H13.9429C13.8667 6.4855 13.7524 6.21883 13.6381 5.99026H10.2857C10.4 5.7236 10.5524 5.49502 10.7048 5.22836H13.2571C13.1048 4.96169 12.9143 4.69502 12.6857 4.46645H11.2762C11.5048 4.19979 11.7333 3.97122 12 3.74264C10.7429 2.56169 9.02857 1.87598 7.1619 1.87598H7.12381" fill="#E52836"/>
<path d="M7.20021 16.1998C9.06688 16.1998 10.7431 15.476 12.0383 14.3331C12.305 14.1046 12.5335 13.8379 12.7621 13.5712H11.2764C11.0859 13.3426 10.8955 13.076 10.7431 12.8474H13.2955C13.4478 12.6188 13.6002 12.3522 13.7145 12.0855H10.324C10.2097 11.8569 10.0955 11.5903 10.0193 11.3236H13.9812C14.2097 10.5998 14.3621 9.83788 14.3621 9.03788C14.3621 8.50455 14.2859 8.00931 14.2097 7.51407H9.79069C9.82879 7.24741 9.90498 7.01883 9.98117 6.75217H13.9431C13.8669 6.4855 13.7526 6.21883 13.6383 5.99026H10.2859C10.4002 5.7236 10.5526 5.49502 10.705 5.22836H13.2574C13.105 4.96169 12.9145 4.69502 12.6859 4.46645H11.2764C11.505 4.19979 11.7335 3.97122 12.0002 3.74264C10.7431 2.56169 9.02878 1.87598 7.16212 1.87598H7.12402" fill="#CB2026"/>
<path d="M9.75222 10.8285L9.86651 10.1808C9.82841 10.1808 9.75222 10.2189 9.67603 10.2189C9.40936 10.2189 9.37127 10.0665 9.40936 9.99036L9.63794 8.65703H10.057L10.1713 7.93322H9.79032L9.86651 7.47607H9.1046C9.1046 7.47607 8.64746 9.99036 8.64746 10.2951C8.64746 10.7523 8.91413 10.9427 9.25698 10.9427C9.48555 10.9427 9.67603 10.8665 9.75222 10.8285Z" fill="#FDFDFD"/>
<path d="M10.0186 9.60973C10.0186 10.6764 10.7424 10.9431 11.3519 10.9431C11.9233 10.9431 12.1519 10.8288 12.1519 10.8288L12.3043 10.105C12.3043 10.105 11.8852 10.2954 11.5043 10.2954C10.6662 10.2954 10.8186 9.68592 10.8186 9.68592H12.3805C12.3805 9.68592 12.4947 9.19068 12.4947 9.00021C12.4947 8.50497 12.2281 7.89545 11.39 7.89545C10.59 7.81926 10.0186 8.65735 10.0186 9.60973ZM11.3519 8.50497C11.7709 8.50497 11.6947 9.00021 11.6947 9.0383H10.8566C10.8566 9.00021 10.9328 8.50497 11.3519 8.50497Z" fill="#FDFDFD"/>
<path d="M16.19 10.8285L16.3423 9.99044C16.3423 9.99044 15.9614 10.1809 15.6947 10.1809C15.1614 10.1809 14.9328 9.76187 14.9328 9.30473C14.9328 8.39044 15.39 7.89521 15.9233 7.89521C16.3043 7.89521 16.609 8.12378 16.609 8.12378L16.7233 7.32378C16.7233 7.32378 16.2662 7.1333 15.8471 7.1333C14.9709 7.1333 14.0947 7.89521 14.0947 9.34282C14.0947 10.2952 14.5519 10.9428 15.4662 10.9428C15.7709 10.9428 16.19 10.8285 16.19 10.8285Z" fill="#FDFDFD"/>
<path d="M5.56175 7.81909C5.02842 7.81909 4.64747 7.97147 4.64747 7.97147L4.53318 8.61909C4.53318 8.61909 4.87604 8.46671 5.37128 8.46671C5.63795 8.46671 5.86652 8.50481 5.86652 8.73338C5.86652 8.88576 5.82842 8.92385 5.82842 8.92385C5.82842 8.92385 5.59985 8.92385 5.48556 8.92385C4.83795 8.92385 4.11414 9.19052 4.11414 10.0667C4.11414 10.7524 4.57128 10.9048 4.83795 10.9048C5.37128 10.9048 5.59985 10.5619 5.63795 10.5619L5.59985 10.8667H6.28556L6.59033 8.77147C6.59033 7.85719 5.82842 7.81909 5.56175 7.81909ZM5.71414 9.53338C5.71414 9.64766 5.63795 10.2572 5.1808 10.2572C4.95223 10.2572 4.87604 10.0667 4.87604 9.95242C4.87604 9.76195 4.99033 9.49528 5.56175 9.49528C5.67604 9.53338 5.71414 9.53338 5.71414 9.53338Z" fill="#FDFDFD"/>
<path d="M7.31369 10.9046C7.50417 10.9046 8.45655 10.9427 8.45655 9.91409C8.45655 8.96171 7.54226 9.15219 7.54226 8.77124C7.54226 8.58076 7.69464 8.50457 7.96131 8.50457C8.07559 8.50457 8.49464 8.54267 8.49464 8.54267L8.60893 7.85695C8.60893 7.85695 8.34226 7.78076 7.88512 7.78076C7.31369 7.78076 6.74226 8.00933 6.74226 8.77124C6.74226 9.64743 7.69464 9.57124 7.69464 9.91409C7.69464 10.1427 7.42798 10.1808 7.2375 10.1808C6.89464 10.1808 6.55179 10.0665 6.55179 10.0665L6.4375 10.7522C6.4756 10.8284 6.66607 10.9046 7.31369 10.9046Z" fill="#FDFDFD"/>
<path d="M22.5142 7.20947L22.3618 8.23804C22.3618 8.23804 22.0571 7.85709 21.638 7.85709C20.9523 7.85709 20.3428 8.69519 20.3428 9.68566C20.3428 10.2952 20.6475 10.9428 21.2952 10.9428C21.7523 10.9428 22.019 10.638 22.019 10.638L21.9809 10.9047H22.7428L23.3142 7.24757L22.5142 7.20947ZM22.1713 9.22852C22.1713 9.64757 21.9809 10.1809 21.5618 10.1809C21.2952 10.1809 21.1428 9.95233 21.1428 9.57138C21.1428 8.96185 21.4094 8.5809 21.7523 8.5809C22.019 8.5809 22.1713 8.77138 22.1713 9.22852Z" fill="#FDFDFD"/>
<path d="M1.40936 10.8666L1.8665 8.12376L1.94269 10.8666H2.47602L3.4665 8.12376L3.04745 10.8666H3.84745L4.45697 7.20947H3.19983L2.43793 9.45709L2.39983 7.20947H1.29507L0.685547 10.8666H1.40936Z" fill="#FDFDFD"/>
<path d="M13.2188 10.8667C13.4474 9.60955 13.4855 8.58098 14.0188 8.77145C14.095 8.27622 14.2093 8.08574 14.2855 7.89526C14.2855 7.89526 14.2474 7.89526 14.1331 7.89526C13.7903 7.89526 13.5236 8.35241 13.5236 8.35241L13.5998 7.93336H12.876L12.3807 10.9048H13.2188V10.8667Z" fill="#FDFDFD"/>
<path d="M17.9427 7.81909C17.4094 7.81909 17.0285 7.97147 17.0285 7.97147L16.9142 8.61909C16.9142 8.61909 17.257 8.46671 17.7523 8.46671C18.0189 8.46671 18.2475 8.50481 18.2475 8.73338C18.2475 8.88576 18.2094 8.92385 18.2094 8.92385C18.2094 8.92385 17.9808 8.92385 17.8665 8.92385C17.2189 8.92385 16.4951 9.19052 16.4951 10.0667C16.4951 10.7524 16.9523 10.9048 17.2189 10.9048C17.7523 10.9048 17.9808 10.5619 18.0189 10.5619L17.9808 10.8667H18.6665L18.9713 8.77147C19.0094 7.85719 18.2094 7.81909 17.9427 7.81909ZM18.1332 9.53338C18.1332 9.64766 18.057 10.2572 17.5999 10.2572C17.3713 10.2572 17.2951 10.0667 17.2951 9.95242C17.2951 9.76195 17.4094 9.49528 17.9808 9.49528C18.0951 9.53338 18.0951 9.53338 18.1332 9.53338Z" fill="#FDFDFD"/>
<path d="M19.6193 10.8664C19.8479 9.60931 19.886 8.58073 20.4193 8.77121C20.4955 8.27597 20.6098 8.0855 20.686 7.89502C20.686 7.89502 20.6479 7.89502 20.5336 7.89502C20.1908 7.89502 19.9241 8.35216 19.9241 8.35216L20.0003 7.93311H19.2765L18.7812 10.9045H19.6193V10.8664Z" fill="#FDFDFD"/>
<path d="M8.57129 10.2951C8.57129 10.7523 8.83796 10.9427 9.18081 10.9427C9.44748 10.9427 9.67605 10.8665 9.75224 10.8285L9.86653 10.1808C9.82843 10.1808 9.75224 10.2189 9.67605 10.2189C9.40938 10.2189 9.37129 10.0665 9.40938 9.99036L9.63795 8.65703H10.057L10.1713 7.93322H9.79034L9.86653 7.47607" fill="#D9D9D9"/>
<path d="M10.3994 9.60973C10.3994 10.6764 10.7423 10.9431 11.3518 10.9431C11.9232 10.9431 12.1518 10.8288 12.1518 10.8288L12.3042 10.105C12.3042 10.105 11.8851 10.2954 11.5042 10.2954C10.6661 10.2954 10.8185 9.68592 10.8185 9.68592H12.3804C12.3804 9.68592 12.4947 9.19068 12.4947 9.00021C12.4947 8.50497 12.228 7.89545 11.3899 7.89545C10.5899 7.81926 10.3994 8.65735 10.3994 9.60973ZM11.3518 8.50497C11.7708 8.50497 11.847 9.00021 11.847 9.0383H10.8566C10.8566 9.00021 10.9327 8.50497 11.3518 8.50497Z" fill="#D9D9D9"/>
<path d="M16.1899 10.8285L16.3423 9.99044C16.3423 9.99044 15.9613 10.1809 15.6946 10.1809C15.1613 10.1809 14.9327 9.76187 14.9327 9.30473C14.9327 8.39044 15.3899 7.89521 15.9232 7.89521C16.3042 7.89521 16.6089 8.12378 16.6089 8.12378L16.7232 7.32378C16.7232 7.32378 16.2661 7.1333 15.847 7.1333C14.9708 7.1333 14.4756 7.89521 14.4756 9.34282C14.4756 10.2952 14.5518 10.9428 15.4661 10.9428C15.7708 10.9428 16.1899 10.8285 16.1899 10.8285Z" fill="#D9D9D9"/>
<path d="M4.53318 8.65717C4.53318 8.65717 4.87604 8.50479 5.37128 8.50479C5.63795 8.50479 5.86652 8.54288 5.86652 8.77145C5.86652 8.92383 5.82842 8.96193 5.82842 8.96193C5.82842 8.96193 5.59985 8.96193 5.48556 8.96193C4.83795 8.96193 4.11414 9.2286 4.11414 10.1048C4.11414 10.7905 4.57128 10.9429 4.83795 10.9429C5.37128 10.9429 5.59985 10.6 5.63795 10.6L5.59985 10.9048H6.28556L6.59033 8.80955C6.59033 7.93336 5.82842 7.89526 5.52366 7.89526L4.53318 8.65717ZM6.09509 9.53336C6.09509 9.64765 5.63795 10.2572 5.1808 10.2572C4.95223 10.2572 4.87604 10.0667 4.87604 9.95241C4.87604 9.76193 4.99033 9.49526 5.56175 9.49526C5.67604 9.53336 6.09509 9.53336 6.09509 9.53336Z" fill="#D9D9D9"/>
<path d="M6.47559 10.8284C6.47559 10.8284 6.70416 10.9046 7.35178 10.9046C7.54225 10.9046 8.49463 10.9427 8.49463 9.91409C8.49463 8.96171 7.58035 9.15219 7.58035 8.77124C7.58035 8.58076 7.73273 8.50457 7.9994 8.50457C8.11368 8.50457 8.53273 8.54267 8.53273 8.54267L8.64702 7.85695C8.64702 7.85695 8.38035 7.78076 7.9232 7.78076C7.35178 7.78076 7.1613 8.00933 7.1613 8.77124C7.1613 9.64743 7.73273 9.57124 7.73273 9.91409C7.73273 10.1427 7.46606 10.1808 7.27559 10.1808" fill="#D9D9D9"/>
<path d="M22.3617 8.23803C22.3617 8.23803 22.0569 7.85708 21.6379 7.85708C20.9522 7.85708 20.7236 8.69518 20.7236 9.68565C20.7236 10.2952 20.6474 10.9428 21.295 10.9428C21.7522 10.9428 22.0188 10.638 22.0188 10.638L21.9807 10.9047H22.7426L23.3141 7.24756L22.3617 8.23803ZM22.3236 9.22851C22.3236 9.64756 21.9807 10.1809 21.5617 10.1809C21.295 10.1809 21.1426 9.95232 21.1426 9.57137C21.1426 8.96184 21.4093 8.58089 21.7522 8.58089C22.0188 8.58089 22.3236 8.77137 22.3236 9.22851Z" fill="#D9D9D9"/>
<path d="M1.40936 10.8666L1.8665 8.12376L1.94269 10.8666H2.47602L3.4665 8.12376L3.04745 10.8666H3.84745L4.45697 7.20947H3.50459L2.43793 9.45709L2.39983 7.20947H1.98078L0.685547 10.8666H1.40936Z" fill="#D9D9D9"/>
<path d="M12.4189 10.8667H13.2189C13.4475 9.60955 13.4856 8.58098 14.0189 8.77145C14.0951 8.27622 14.2094 8.08574 14.2856 7.89526C14.2856 7.89526 14.2475 7.89526 14.1332 7.89526C13.7904 7.89526 13.5237 8.35241 13.5237 8.35241L13.5999 7.93336" fill="#D9D9D9"/>
<path d="M16.9142 8.65717C16.9142 8.65717 17.257 8.50479 17.7523 8.50479C18.0189 8.50479 18.2475 8.54288 18.2475 8.77145C18.2475 8.92383 18.2094 8.96193 18.2094 8.96193C18.2094 8.96193 17.9808 8.96193 17.8665 8.96193C17.2189 8.96193 16.4951 9.2286 16.4951 10.1048C16.4951 10.7905 16.9523 10.9429 17.2189 10.9429C17.7523 10.9429 17.9808 10.6 18.0189 10.6L17.9808 10.9048H18.6665L18.9713 8.80955C18.9713 7.93336 18.2094 7.89526 17.9046 7.89526L16.9142 8.65717ZM18.4761 9.53336C18.4761 9.64765 18.0189 10.2572 17.5618 10.2572C17.3332 10.2572 17.257 10.0667 17.257 9.95241C17.257 9.76193 17.3713 9.49526 17.9427 9.49526C18.0951 9.53336 18.4761 9.53336 18.4761 9.53336Z" fill="#D9D9D9"/>
<path d="M18.8193 10.8664H19.6193C19.8479 9.6093 19.886 8.58073 20.4193 8.77121C20.4955 8.27597 20.6098 8.0855 20.686 7.89502C20.686 7.89502 20.6479 7.89502 20.5336 7.89502C20.1908 7.89502 19.9241 8.35216 19.9241 8.35216L20.0003 7.93311" fill="#D9D9D9"/>
</svg>
