<svg width="24" height="25" viewBox="0 0 24 25" fill="none" xmlns="http://www.w3.org/2000/svg">
<path fill-rule="evenodd" clip-rule="evenodd" d="M23.52 12.7727C23.52 11.9218 23.4436 11.1036 23.3018 10.3181H12V14.9599H18.4582C18.18 16.4599 17.3345 17.7308 16.0636 18.5818V21.5927H19.9418C22.2109 19.5036 23.52 16.4272 23.52 12.7727Z" fill="#4285F4"/>
<path fill-rule="evenodd" clip-rule="evenodd" d="M12 24.5C15.24 24.5 17.9564 23.4255 19.9418 21.5928L16.0636 18.5818C14.9891 19.3018 13.6145 19.7273 12 19.7273C8.87455 19.7273 6.22909 17.6164 5.28546 14.78H1.27637V17.8891C3.25091 21.8109 7.30909 24.5 12 24.5Z" fill="#34A853"/>
<path fill-rule="evenodd" clip-rule="evenodd" d="M5.28545 14.7799C5.04545 14.0599 4.90909 13.2908 4.90909 12.4999C4.90909 11.709 5.04545 10.9399 5.28545 10.2199V7.11084H1.27636C0.463636 8.73084 0 10.5636 0 12.4999C0 14.4363 0.463636 16.269 1.27636 17.889L5.28545 14.7799Z" fill="#FBBC05"/>
<path fill-rule="evenodd" clip-rule="evenodd" d="M12 5.27273C13.7618 5.27273 15.3436 5.87818 16.5873 7.06727L20.0291 3.62545C17.9509 1.68909 15.2345 0.5 12 0.5C7.30909 0.5 3.25091 3.18909 1.27637 7.11091L5.28546 10.22C6.22909 7.38364 8.87455 5.27273 12 5.27273Z" fill="#EA4335"/>
</svg>
